<svg xmlns="http://www.w3.org/2000/svg" width="802" height="195" viewBox="0 0 802 195">
  <g id="Group_24" data-name="Group 24" transform="translate(-556 -1385)">
    <rect id="Rectangle_67" data-name="Rectangle 67" width="802" height="195" rx="4" transform="translate(556 1385)" fill="#a6c4b1"/>
    <rect id="Rectangle_68" data-name="Rectangle 68" width="178" height="178" rx="2" transform="translate(564 1394)" fill="#fff"/>
    <text id="CineGram" transform="translate(775 1522)" fill="#fff" font-size="111" font-family="MetaSerifPro-Book, Meta Serif Pro"><tspan x="0" y="0">CINEGRAM</tspan></text>
    <g id="Group_23" data-name="Group 23" transform="translate(5.08 -0.028)">
      <path id="Path_29" data-name="Path 29" d="M6529.944,1136.881c5.324-3.777,9.686-10.629,4.372-16.489s-16.009-1.656-20.874,1.679-30.159,18.717-28.366,56.719,29.525,51.228,34.229,52.7,13.723,1.868,15.827-1.471,2.4-9.852-2.658-13.514-24.044-12.882-26.012-37.718S6524.621,1140.658,6529.944,1136.881Z" transform="translate(-5891.065 306.898)" fill="#a6c4b1"/>
      <path id="Path_30" data-name="Path 30" d="M3.934.113C5.457-.438,14.227,1.2,22,1.367c6.453.14,11.9-1.2,14.737-.07,5.736,2.288,8.5,14.849-.4,20.136s-24.675,2.085-32.15-2.868S.919,1.2,3.934.113Z" transform="translate(654.188 1530.198) rotate(-39)" fill="#a6c4b1"/>
      <path id="Path_31" data-name="Path 31" d="M3.934.113C5.457-.438,14.227,1.2,22,1.367c6.453.14,11.9-1.2,14.737-.07,5.736,2.288,8.5,14.849-.4,20.136s-24.675,2.085-32.15-2.868S.919,1.2,3.934.113Z" transform="matrix(-0.848, -0.53, 0.53, -0.848, 689.278, 1459.804)" fill="#a6c4b1"/>
    </g>
  </g>
</svg>
